<svg width="50" height="16" viewBox="0 0 50 16" fill="none" xmlns="http://www.w3.org/2000/svg">
<rect width="50" height="16" rx="2" fill="#EE4D2D"/>
<path d="M6.84358 8.53882C7.08888 8.23901 7.30695 7.95736 7.54317 7.6848C8.59706 6.43103 9.74189 5.2772 11.0411 4.29599C11.2682 4.12337 11.4863 3.92349 11.7407 3.82355C11.9587 3.74179 12.222 3.80538 12.4673 3.7963C12.6399 3.7963 12.8126 3.7963 12.9943 3.7963C12.9762 3.81447 12.9764 3.83264 12.9673 3.84172C11.977 4.70483 11.1319 5.70421 10.3415 6.73993C9.08773 8.37529 7.96093 10.0924 6.92521 11.8731C6.90704 11.9004 6.88903 11.9276 6.86177 11.9822C5.97141 10.5285 4.97212 9.16571 4 7.80291C4.23622 7.55761 4.46315 7.31231 4.70846 7.05792C5.42619 7.54853 6.13493 8.03913 6.84358 8.53882Z" fill="white"/>
<path d="M19.9219 9.18555H21.1426C21.1035 9.65104 20.9733 10.0661 20.752 10.4307C20.5306 10.792 20.2197 11.0768 19.8193 11.2852C19.4189 11.4935 18.9323 11.5977 18.3594 11.5977C17.9199 11.5977 17.5244 11.5195 17.1729 11.3633C16.8213 11.2038 16.5202 10.9792 16.2695 10.6895C16.0189 10.3965 15.8268 10.0433 15.6934 9.62988C15.5632 9.21647 15.498 8.75423 15.498 8.24316V7.65234C15.498 7.14128 15.5648 6.67904 15.6982 6.26562C15.835 5.85221 16.0303 5.49902 16.2842 5.20605C16.5381 4.90983 16.8424 4.68359 17.1973 4.52734C17.5553 4.37109 17.9574 4.29297 18.4033 4.29297C18.9697 4.29297 19.4482 4.39714 19.8389 4.60547C20.2295 4.8138 20.5322 5.10189 20.7471 5.46973C20.9652 5.83757 21.0986 6.25911 21.1475 6.73438H19.9268C19.8942 6.42839 19.8226 6.16634 19.7119 5.94824C19.6045 5.73014 19.445 5.56413 19.2334 5.4502C19.0218 5.33301 18.7451 5.27441 18.4033 5.27441C18.1234 5.27441 17.8792 5.3265 17.6709 5.43066C17.4626 5.53483 17.2884 5.68783 17.1484 5.88965C17.0085 6.09147 16.9027 6.34049 16.8311 6.63672C16.7627 6.92969 16.7285 7.26497 16.7285 7.64258V8.24316C16.7285 8.60124 16.7594 8.92676 16.8213 9.21973C16.8864 9.50944 16.984 9.75846 17.1143 9.9668C17.2477 10.1751 17.417 10.3363 17.6221 10.4502C17.8271 10.5641 18.0729 10.6211 18.3594 10.6211C18.7077 10.6211 18.9893 10.5658 19.2041 10.4551C19.4222 10.3444 19.5866 10.1833 19.6973 9.97168C19.8112 9.75684 19.8861 9.49479 19.9219 9.18555ZM23.3008 4V11.5H22.1289V4H23.3008ZM23.0957 8.66309L22.7148 8.6582C22.7181 8.29362 22.7686 7.95671 22.8662 7.64746C22.9671 7.33822 23.1071 7.06966 23.2861 6.8418C23.4684 6.61068 23.6865 6.43327 23.9404 6.30957C24.1943 6.18262 24.4759 6.11914 24.7852 6.11914C25.0456 6.11914 25.2799 6.15495 25.4883 6.22656C25.6999 6.29818 25.8822 6.41374 26.0352 6.57324C26.1882 6.72949 26.3037 6.93457 26.3818 7.18848C26.4632 7.43913 26.5039 7.74512 26.5039 8.10645V11.5H25.3223V8.09668C25.3223 7.84277 25.2848 7.64095 25.21 7.49121C25.1383 7.34147 25.0326 7.23405 24.8926 7.16895C24.7526 7.10059 24.5817 7.06641 24.3799 7.06641C24.1683 7.06641 23.9811 7.10872 23.8184 7.19336C23.6589 7.27799 23.5254 7.39355 23.418 7.54004C23.3105 7.68652 23.2292 7.85579 23.1738 8.04785C23.1217 8.23991 23.0957 8.44499 23.0957 8.66309ZM27.4707 8.91699V8.80469C27.4707 8.42383 27.526 8.07064 27.6367 7.74512C27.7474 7.41634 27.9069 7.13151 28.1152 6.89062C28.3268 6.64648 28.584 6.45768 28.8867 6.32422C29.1927 6.1875 29.5378 6.11914 29.9219 6.11914C30.3092 6.11914 30.6543 6.1875 30.957 6.32422C31.263 6.45768 31.5218 6.64648 31.7334 6.89062C31.945 7.13151 32.1061 7.41634 32.2168 7.74512C32.3275 8.07064 32.3828 8.42383 32.3828 8.80469V8.91699C32.3828 9.29785 32.3275 9.65104 32.2168 9.97656C32.1061 10.3021 31.945 10.5869 31.7334 10.8311C31.5218 11.0719 31.2646 11.2607 30.9619 11.3975C30.6592 11.5309 30.3158 11.5977 29.9316 11.5977C29.5443 11.5977 29.1976 11.5309 28.8916 11.3975C28.5889 11.2607 28.3317 11.0719 28.1201 10.8311C27.9085 10.5869 27.7474 10.3021 27.6367 9.97656C27.526 9.65104 27.4707 9.29785 27.4707 8.91699ZM28.6475 8.80469V8.91699C28.6475 9.15462 28.6719 9.37923 28.7207 9.59082C28.7695 9.80241 28.846 9.98796 28.9502 10.1475C29.0544 10.307 29.1878 10.4323 29.3506 10.5234C29.5133 10.6146 29.707 10.6602 29.9316 10.6602C30.1497 10.6602 30.3385 10.6146 30.498 10.5234C30.6608 10.4323 30.7943 10.307 30.8984 10.1475C31.0026 9.98796 31.0791 9.80241 31.1279 9.59082C31.18 9.37923 31.2061 9.15462 31.2061 8.91699V8.80469C31.2061 8.57031 31.18 8.34896 31.1279 8.14062C31.0791 7.92904 31.001 7.74186 30.8936 7.5791C30.7894 7.41634 30.6559 7.28939 30.4932 7.19824C30.3337 7.10384 30.1432 7.05664 29.9219 7.05664C29.7005 7.05664 29.5085 7.10384 29.3457 7.19824C29.1862 7.28939 29.0544 7.41634 28.9502 7.5791C28.846 7.74186 28.7695 7.92904 28.7207 8.14062C28.6719 8.34896 28.6475 8.57031 28.6475 8.80469ZM34.6289 6.2168V11.5H33.4473V6.2168H34.6289ZM33.3691 4.83008C33.3691 4.65104 33.4277 4.50293 33.5449 4.38574C33.6654 4.2653 33.8314 4.20508 34.043 4.20508C34.2513 4.20508 34.4157 4.2653 34.5361 4.38574C34.6566 4.50293 34.7168 4.65104 34.7168 4.83008C34.7168 5.00586 34.6566 5.15234 34.5361 5.26953C34.4157 5.38672 34.2513 5.44531 34.043 5.44531C33.8314 5.44531 33.6654 5.38672 33.5449 5.26953C33.4277 5.15234 33.3691 5.00586 33.3691 4.83008ZM38.0762 10.6602C38.2682 10.6602 38.4408 10.6227 38.5938 10.5479C38.75 10.4697 38.8753 10.3623 38.9697 10.2256C39.0674 10.0889 39.1211 9.93099 39.1309 9.75195H40.2393C40.2327 10.0938 40.1318 10.4046 39.9365 10.6846C39.7412 10.9645 39.4824 11.1875 39.1602 11.3535C38.8379 11.5163 38.4814 11.5977 38.0908 11.5977C37.6872 11.5977 37.3356 11.5293 37.0361 11.3926C36.7367 11.2526 36.4876 11.0605 36.2891 10.8164C36.0905 10.5723 35.9408 10.2907 35.8398 9.97168C35.7422 9.65267 35.6934 9.31087 35.6934 8.94629V8.77539C35.6934 8.41081 35.7422 8.06901 35.8398 7.75C35.9408 7.42773 36.0905 7.14453 36.2891 6.90039C36.4876 6.65625 36.7367 6.46582 37.0361 6.3291C37.3356 6.18913 37.6855 6.11914 38.0859 6.11914C38.5091 6.11914 38.8802 6.20378 39.1992 6.37305C39.5182 6.53906 39.7689 6.77181 39.9512 7.07129C40.1367 7.36751 40.2327 7.71257 40.2393 8.10645H39.1309C39.1211 7.91113 39.0723 7.73535 38.9844 7.5791C38.8997 7.4196 38.7793 7.29264 38.623 7.19824C38.4701 7.10384 38.2861 7.05664 38.0713 7.05664C37.8337 7.05664 37.6367 7.10547 37.4805 7.20312C37.3242 7.29753 37.2021 7.42773 37.1143 7.59375C37.0264 7.75651 36.9629 7.94043 36.9238 8.14551C36.888 8.34733 36.8701 8.55729 36.8701 8.77539V8.94629C36.8701 9.16439 36.888 9.37598 36.9238 9.58105C36.9596 9.78613 37.0215 9.97005 37.1094 10.1328C37.2005 10.2923 37.3242 10.4209 37.4805 10.5186C37.6367 10.613 37.8353 10.6602 38.0762 10.6602ZM43.4717 11.5977C43.0811 11.5977 42.7279 11.5342 42.4121 11.4072C42.0996 11.277 41.8327 11.0964 41.6113 10.8652C41.3932 10.6341 41.2256 10.3623 41.1084 10.0498C40.9912 9.7373 40.9326 9.40039 40.9326 9.03906V8.84375C40.9326 8.43034 40.9928 8.05599 41.1133 7.7207C41.2337 7.38542 41.4014 7.09896 41.6162 6.86133C41.8311 6.62044 42.085 6.43652 42.3779 6.30957C42.6709 6.18262 42.9883 6.11914 43.3301 6.11914C43.7077 6.11914 44.0381 6.18262 44.3213 6.30957C44.6045 6.43652 44.8389 6.61556 45.0244 6.84668C45.2132 7.07454 45.3532 7.34635 45.4443 7.66211C45.5387 7.97786 45.5859 8.32617 45.5859 8.70703V9.20996H41.5039V8.36523H44.4238V8.27246C44.4173 8.06087 44.375 7.8623 44.2969 7.67676C44.222 7.49121 44.1064 7.34147 43.9502 7.22754C43.7939 7.11361 43.5856 7.05664 43.3252 7.05664C43.1299 7.05664 42.9557 7.09896 42.8027 7.18359C42.653 7.26497 42.5277 7.38379 42.4268 7.54004C42.3258 7.69629 42.2477 7.88509 42.1924 8.10645C42.1403 8.32454 42.1143 8.57031 42.1143 8.84375V9.03906C42.1143 9.27018 42.1452 9.48503 42.207 9.68359C42.2721 9.87891 42.3665 10.0498 42.4902 10.1963C42.6139 10.3428 42.7637 10.4583 42.9395 10.543C43.1152 10.6243 43.3154 10.665 43.54 10.665C43.8232 10.665 44.0755 10.6081 44.2969 10.4941C44.5182 10.3802 44.7103 10.2191 44.873 10.0107L45.4932 10.6113C45.3792 10.7773 45.2311 10.9368 45.0488 11.0898C44.8665 11.2396 44.6436 11.3617 44.3799 11.4561C44.1195 11.5505 43.8167 11.5977 43.4717 11.5977Z" fill="white"/>
</svg>
